<svg width="125" height="115" viewBox="0 0 125 115" fill="none" xmlns="http://www.w3.org/2000/svg">
<ellipse cx="1.45291" cy="15.8025" rx="11.8701" ry="9.48148" fill="#DEF3FF" fill-opacity="0.3"/>
<ellipse cx="1.45291" cy="62.4198" rx="11.8701" ry="10.2716" fill="#DEF3FF" fill-opacity="0.3"/>
<ellipse cx="1.45291" cy="112.198" rx="11.8701" ry="9.48148" fill="#DEF3FF" fill-opacity="0.3"/>
<ellipse cx="54.4729" cy="15.8025" rx="12.6615" ry="9.48148" fill="#DEF3FF" fill-opacity="0.3"/>
<ellipse cx="54.4729" cy="62.4198" rx="12.6615" ry="10.2716" fill="#DEF3FF" fill-opacity="0.3"/>
<ellipse cx="54.4729" cy="112.198" rx="12.6615" ry="9.48148" fill="#DEF3FF" fill-opacity="0.3"/>
<ellipse cx="110.658" cy="15.8025" rx="11.8701" ry="9.48148" fill="#DEF3FF" fill-opacity="0.3"/>
<ellipse cx="110.658" cy="62.4198" rx="11.8701" ry="10.2716" fill="#DEF3FF" fill-opacity="0.3"/>
<ellipse cx="110.658" cy="112.198" rx="11.8701" ry="9.48148" fill="#DEF3FF" fill-opacity="0.3"/>
<ellipse cx="82.1698" cy="39.5062" rx="11.8701" ry="11.0617" fill="#DEF3FF" fill-opacity="0.3"/>
<ellipse cx="82.1698" cy="88.4938" rx="11.8701" ry="11.0617" fill="#DEF3FF" fill-opacity="0.3"/>
<ellipse cx="29.1499" cy="37.9259" rx="12.6615" ry="11.0617" fill="#DEF3FF" fill-opacity="0.3"/>
<ellipse cx="29.1499" cy="86.1234" rx="12.6615" ry="10.2716" fill="#DEF3FF" fill-opacity="0.3"/>
<path d="M27.5672 6.321L39.903 25.284H15.2314L27.5672 6.321Z" fill="#DEF3FF" fill-opacity="0.3"/>
<path d="M27.5672 52.1482L39.903 71.1111H15.2314L27.5672 52.1482Z" fill="#DEF3FF" fill-opacity="0.3"/>
<path d="M27.5672 102.716L39.903 121.679H15.2314L27.5672 102.716Z" fill="#DEF3FF" fill-opacity="0.3"/>
<path d="M55.2643 26.8642L68.2854 47.0123H42.2431L55.2643 26.8642Z" fill="#DEF3FF" fill-opacity="0.3"/>
<path d="M55.2643 75.8518L68.2854 96H42.2431L55.2643 75.8518Z" fill="#DEF3FF" fill-opacity="0.3"/>
<path d="M82.8266 26.3862L70.5761 6.57312L95.7496 6.9229L82.8266 26.3862Z" fill="#DEF3FF" fill-opacity="0.3"/>
<path d="M82.8266 73.0889L70.5761 53.2758L95.7496 53.6256L82.8266 73.0889Z" fill="#DEF3FF" fill-opacity="0.3"/>
<path d="M82.8266 123.251L70.5761 103.438L95.7496 103.788L82.8266 123.251Z" fill="#DEF3FF" fill-opacity="0.3"/>
<path d="M2.53385 48.8726L-9.7166 29.0596L15.4569 29.4094L2.53385 48.8726Z" fill="#DEF3FF" fill-opacity="0.3"/>
<path d="M2.53385 97.3453L-9.7166 77.5323L15.4569 77.882L2.53385 97.3453Z" fill="#DEF3FF" fill-opacity="0.3"/>
<path d="M109.129 48.8324L96.8783 29.0194L122.052 29.3692L109.129 48.8324Z" fill="#DEF3FF" fill-opacity="0.3"/>
<path d="M109.129 97.3051L96.8783 77.492L122.052 77.8418L109.129 97.3051Z" fill="#DEF3FF" fill-opacity="0.3"/>
</svg>
