<svg width="26" height="27" viewBox="0 0 26 27" fill="none" xmlns="http://www.w3.org/2000/svg">
<path d="M15.1355 0.887085H10.0903C4.51759 0.887085 0 5.40468 0 10.9774V16.0226C0 21.5953 4.51759 26.1129 10.0903 26.1129H15.1355C20.7082 26.1129 25.2258 21.5953 25.2258 16.0226V10.9774C25.2258 5.40468 20.7082 0.887085 15.1355 0.887085Z" fill="#C5DCFA" fill-opacity="0.5"/>
<path fill-rule="evenodd" clip-rule="evenodd" d="M9.45987 9.40072H7.56793C6.87107 9.40072 6.30664 9.96515 6.30664 10.662V18.2298C6.30664 18.9266 6.87107 19.491 7.56793 19.491H17.6583C18.3551 19.491 18.9195 18.9266 18.9195 18.2298V10.662C18.9195 9.96515 18.3551 9.40072 17.6583 9.40072H15.7663C15.7663 8.35575 14.9194 7.50879 13.8744 7.50879H11.3518C10.3068 7.50879 9.45987 8.35575 9.45987 9.40072ZM11.3518 8.77008H13.8744C14.2225 8.77008 14.505 9.05261 14.505 9.40072H10.7212C10.7212 9.05261 11.0037 8.77008 11.3518 8.77008ZM7.56793 10.662H17.6583V11.9233H7.56793V10.662ZM17.6583 18.2298V13.1846H15.7663V14.4459H13.2437V13.1846H11.9824V14.4459H9.45987V13.1846H7.56793V18.2298H17.6583Z" fill="#414141"/>
</svg>
